# xmcd CD database file
#
# Track frame offsets:
#	150
#	11383
#	23395
#	40583
#	55803
#	74005
#	98078
#	113905
#	128213
#	142413
#	155370
#	169658
#	188265
#	201168
#
# Disc length: 3003 seconds
#
# Revision: 9
# Processed by: cddbd v1.5.1PL0 Copyright (c) Steve Scherf et al.
# Submitted via: CDex 1.51
#
DISCID=b30bb90e
DTITLE=ゆず - ゆず一家
DYEAR=1998
DGENRE=JPop
TTITLE0=四時五分
TTITLE1=少年
TTITLE2=以上
TTITLE3=夏色
TTITLE4=手紙
TTITLE5=心の音
TTITLE6=雨と泪
TTITLE7=巨女
TTITLE8=ソウロウ
TTITLE9=月曜日の週末
TTITLE10=街灯
TTITLE11=ねこじゃらし
TTITLE12=贈る詩
TTITLE13=境界線
EXTD=YEAR: 1998
EXTT0=
EXTT1=
EXTT2=
EXTT3=
EXTT4=
EXTT5=
EXTT6=
EXTT7=
EXTT8=
EXTT9=
EXTT10=
EXTT11=
EXTT12=
EXTT13=
PLAYORDER=
